<?xml version="1.0" encoding="utf-8"?>
<!-- Generator: Adobe Illustrator 16.0.0, SVG Export Plug-In . SVG Version: 6.00 Build 0)  -->
<!DOCTYPE svg PUBLIC "-//W3C//DTD SVG 1.1//EN" "http://www.w3.org/Graphics/SVG/1.1/DTD/svg11.dtd">
<svg version="1.1" id="图层_1" xmlns="http://www.w3.org/2000/svg" xmlns:xlink="http://www.w3.org/1999/xlink" x="0px" y="0px"
	 width="500px" height="500px" viewBox="0 0 500 500" enable-background="new 0 0 500 500" xml:space="preserve">
<g>
	<path fill="#E7481A" d="M381.006,243.232h-93.579c-2.032-0.307-3.585-2.065-3.585-4.181c0-1.159,0.461-2.204,1.217-2.967
		l-2.37,2.369l68.121-68.122c1.73-1.732,1.73-4.538,0-6.268l-9.115-9.117c-1.732-1.73-4.538-1.73-6.269,0l-66.171,66.171
		c-1.654,1.22-3.997,1.076-5.492-0.421c-0.817-0.819-1.231-1.885-1.237-2.958V124.75c0-2.447-1.985-4.432-4.432-4.432h-12.895
		c-2.446,0-4.431,1.985-4.431,4.432v93.579c-0.309,2.032-2.067,3.585-4.182,3.585c-1.157,0-2.204-0.461-2.965-1.215
		c-0.02-0.015-0.035-0.03-0.051-0.05l-65.705-65.701c-1.73-1.731-4.535-1.731-6.267,0l-9.117,9.113c-1.73,1.73-1.73,4.539,0,6.27
		l66.174,66.174c1.217,1.654,1.071,3.994-0.424,5.489c-0.818,0.818-1.885,1.232-2.957,1.237h1.974h-94.962
		c-2.449,0-4.433,1.985-4.433,4.433v12.892c0,2.448,1.984,4.433,4.433,4.433h93.58c2.031,0.308,3.585,2.065,3.585,4.183
		c0,1.157-0.462,2.203-1.217,2.965l1.107-1.105L152.48,337.89c-1.73,1.732-1.73,4.538,0.001,6.269l9.116,9.117
		c1.73,1.73,4.538,1.73,6.269,0l66.171-66.171c1.653-1.22,3.995-1.074,5.492,0.422c0.818,0.818,1.232,1.884,1.238,2.957l0.001-2.889
		v95.879c0,2.445,1.985,4.431,4.431,4.431h12.895c2.446,0,4.432-1.985,4.432-4.431v-93.586c0.309-2.029,2.065-3.581,4.181-3.581
		c1.156,0,2.2,0.46,2.963,1.213l65.756,65.756c1.73,1.73,4.539,1.73,6.27,0l9.117-9.117c1.731-1.731,1.731-4.536,0-6.267
		l-66.173-66.174c-1.218-1.653-1.072-3.994,0.422-5.489c0.818-0.819,1.885-1.233,2.957-1.239h-2.889h95.877
		c2.448,0,4.434-1.984,4.434-4.433v-12.892C385.439,245.217,383.454,243.232,381.006,243.232z"/>
	<path fill="#E7481A" d="M77.476,184.222c-2.656,0-4.809-2.153-4.809-4.809V72.667h106.746c2.655,0,4.809,2.153,4.809,4.809
		s-2.154,4.809-4.809,4.809H82.284v97.129C82.284,182.069,80.131,184.222,77.476,184.222z"/>
	<path fill="#E7481A" d="M422.523,184.222c-2.654,0-4.808-2.153-4.808-4.809V82.284h-97.129c-2.655,0-4.809-2.153-4.809-4.809
		s2.153-4.809,4.809-4.809h106.746v106.746C427.333,182.069,425.181,184.222,422.523,184.222z"/>
	<path fill="#E7481A" d="M179.413,427.333H72.667V320.587c0-2.655,2.153-4.809,4.809-4.809c2.655,0,4.808,2.153,4.808,4.809v97.129
		h97.129c2.655,0,4.809,2.153,4.809,4.808C184.222,425.181,182.068,427.333,179.413,427.333z"/>
	<path fill="#E7481A" d="M427.333,427.333H320.587c-2.655,0-4.809-2.152-4.809-4.81c0-2.654,2.153-4.808,4.809-4.808h97.129v-97.129
		c0-2.655,2.153-4.809,4.808-4.809c2.657,0,4.81,2.153,4.81,4.809V427.333z"/>
</g>
</svg>
